<?xml version="1.0" standalone="no"?>
<!DOCTYPE svg PUBLIC "-//W3C//DTD SVG 20010904//EN"
 "http://www.w3.org/TR/2001/REC-SVG-20010904/DTD/svg10.dtd">
<svg version="1.0" xmlns="http://www.w3.org/2000/svg"
 width="800.000000pt" height="800.000000pt" viewBox="0 0 800.000000 800.000000"
 preserveAspectRatio="xMidYMid meet">
<metadata>
Created by potrace 1.11, written by Peter Selinger 2001-2013
</metadata>
<g transform="translate(0.000000,800.000000) scale(0.100000,-0.100000)"
fill="#000000" stroke="none">
<path d="M0 4000 l0 -4000 4000 0 4000 0 0 4000 0 4000 -4000 0 -4000 0 0
-4000z m6149 1910 c41 -6 79 -14 85 -20 5 -5 -8 -4 -30 2 -52 16 -396 17 -446
1 -21 -6 -38 -8 -38 -3 0 24 291 38 429 20z m-534 -60 c-3 -5 -12 -10 -18 -10
-7 0 -6 4 3 10 19 12 23 12 15 0z m755 0 c8 -5 11 -10 5 -10 -5 0 -17 5 -25
10 -8 5 -10 10 -5 10 6 0 17 -5 25 -10z m356 -18 c-17 -16 -18 -16 -5 5 7 12
15 20 18 17 3 -2 -3 -12 -13 -22z m-1206 -25 c-36 -18 -71 -39 -78 -47 -10
-13 -11 -12 -5 4 3 10 34 31 67 47 84 39 96 35 16 -4z m912 19 c18 -8 52 -22
76 -32 23 -9 42 -21 42 -25 0 -7 -147 55 -159 67 -8 8 9 4 41 -10z m257 -53
c-38 -64 -43 -67 -75 -48 -26 15 -17 14 21 -1 10 -4 21 8 36 40 11 25 26 46
31 46 5 0 0 -17 -13 -37z m-1294 -45 c-38 -22 -94 -75 -162 -153 -18 -20 -33
-34 -33 -30 0 27 176 195 204 195 6 0 2 -6 -9 -12z m670 -7 c24 -5 -10 -6 -85
-4 -94 4 -137 1 -175 -11 -27 -8 -51 -13 -53 -11 -2 2 18 10 44 19 53 16 203
20 269 7z m-392 -78 c-30 -11 -96 -68 -115 -99 -11 -18 -24 -34 -29 -34 -6 0
6 21 25 46 35 45 116 108 126 97 3 -3 0 -8 -7 -10z m703 -59 c48 -39 145 -150
103 -119 -14 11 -38 37 -54 58 -15 21 -56 56 -91 78 -35 23 -64 45 -64 51 0
10 40 -16 106 -68z m-1222 -131 c-34 -61 -48 -76 -34 -39 15 41 43 86 53 86 4
0 -4 -21 -19 -47z m327 -30 c-12 -20 -14 -14 -5 12 4 9 9 14 11 11 3 -2 0 -13
-6 -23z m1071 -55 c5 -16 14 -28 19 -28 5 0 9 -8 9 -17 0 -19 -51 55 -63 92
l-7 20 16 -20 c9 -11 20 -32 26 -47z m-1079 17 c-3 -9 -8 -14 -10 -11 -3 3 -2
9 2 15 9 16 15 13 8 -4z m-360 -20 c-3 -9 -8 -14 -10 -11 -3 3 -2 9 2 15 9 16
15 13 8 -4z m352 -94 c0 -49 -3 -87 -7 -84 -14 8 -8 173 6 173 0 0 1 -40 1
-89z m1153 -36 c-3 -3 -9 2 -12 12 -6 14 -5 15 5 6 7 -7 10 -15 7 -18z m32
-59 c0 -12 -5 -7 -19 24 -11 24 -11 24 3 6 9 -11 16 -24 16 -30z m18 -58 c6
-24 18 -64 26 -90 8 -27 12 -48 8 -48 -4 0 -19 41 -33 90 -14 50 -23 90 -20
90 4 0 12 -19 19 -42z m-1190 1 c-3 -8 -7 -3 -11 10 -4 17 -3 21 5 13 5 -5 8
-16 6 -23z m-4973 -204 c30 -3 57 -11 60 -16 4 -5 15 -9 25 -9 10 0 21 -4 25
-9 3 -6 -6 -6 -25 0 -16 5 -45 14 -62 19 -18 6 -45 10 -60 10 -28 0 -28 0 -26
68 l2 67 3 -61 4 -62 54 -7z m5046 63 c10 -13 18 -28 19 -34 0 -13 75 -85 105
-102 11 -6 16 -14 12 -18 -8 -9 -137 118 -156 154 -15 28 -4 28 20 0z m-4181
-57 c0 -4 -37 -11 -82 -14 -46 -4 -98 -11 -117 -17 -26 -7 -32 -7 -23 2 6 6
57 17 114 23 57 7 104 13 106 14 1 0 2 -3 2 -8z m688 -21 c28 -6 52 -15 52
-20 0 -4 -21 -2 -47 6 -27 8 -79 18 -118 23 l-70 10 65 -4 c36 -2 89 -8 118
-15z m575 0 c-88 -23 -118 -39 -162 -84 -19 -20 -37 -36 -42 -36 -4 0 13 20
40 45 49 46 100 73 161 85 71 15 73 8 3 -10z m2457 -20 c0 -5 -2 -10 -4 -10
-3 0 -8 5 -11 10 -3 6 -1 10 4 10 6 0 11 -4 11 -10z m-3986 -42 c-3 -18 2 -52
10 -76 8 -24 12 -40 7 -38 -15 9 -34 94 -27 121 9 36 16 31 10 -7z m1106 -75
c0 -67 -26 -184 -46 -209 -9 -11 -12 -13 -8 -5 16 32 44 160 44 207 0 37 -6
59 -22 80 l-22 29 27 -24 c23 -21 27 -33 27 -78z m-1509 50 c22 -24 26 -31 11
-20 -21 14 -59 57 -50 57 2 0 20 -16 39 -37z m4418 -60 c11 -29 32 -71 46 -93
14 -21 19 -37 12 -34 -14 5 -48 67 -71 132 -29 77 -18 73 13 -5z m669 18 c15
-10 48 -26 75 -36 26 -10 47 -21 47 -26 0 -10 -108 37 -140 61 -32 25 -17 26
18 1z m-5022 -42 c21 -42 63 -169 56 -169 -4 0 -15 26 -26 58 -10 31 -28 78
-40 104 -24 51 -16 56 10 7z m1657 26 c-3 -9 -8 -14 -10 -11 -3 3 -2 9 2 15 9
16 15 13 8 -4z m-27 -57 c-28 -68 -39 -88 -48 -88 -4 0 5 27 22 60 32 64 50
82 26 28z m-1252 -24 c3 -8 2 -12 -4 -9 -6 3 -10 10 -10 16 0 14 7 11 14 -7z
m5036 -76 c0 -4 -24 2 -52 13 -29 12 -66 26 -83 31 -16 6 -34 15 -40 19 -5 5
32 -5 83 -23 51 -18 92 -36 92 -40z m-947 -28 c26 -31 21 -36 -35 -39 -29 -2
-71 -5 -93 -6 -22 -1 -98 -6 -170 -10 -71 -4 -146 -9 -165 -10 -19 -1 -91 -6
-160 -9 -69 -4 -145 -9 -170 -11 -146 -12 -294 -15 -285 -7 6 5 249 22 540 37
292 16 532 30 534 32 2 1 -4 12 -14 23 -10 11 -14 20 -9 20 5 0 17 -9 27 -20z
m-4012 -94 c15 -43 23 -74 19 -70 -13 13 -60 144 -59 163 1 19 0 20 40 -93z
m5214 21 c36 -20 21 -23 -16 -3 -15 7 -50 21 -78 31 -28 9 -53 20 -56 24 -6
10 110 -30 150 -52z m-4135 -22 c0 -8 -4 -15 -10 -15 -5 0 -7 7 -4 15 4 8 8
15 10 15 2 0 4 -7 4 -15z m1769 -9 c-8 -9 -99 -12 -99 -4 0 4 23 8 52 8 28 0
49 -2 47 -4z m-160 -10 c-8 -8 -128 -12 -123 -4 3 4 33 8 66 8 34 0 59 -2 57
-4z m-3004 -91 c16 -46 27 -86 24 -89 -2 -3 -18 36 -35 85 -17 49 -28 89 -25
89 4 0 19 -38 36 -85z m1370 48 c-8 -20 -14 -38 -11 -40 2 -2 160 5 352 17
192 11 366 20 387 20 58 0 44 -15 -16 -16 -62 -1 -284 -13 -347 -19 -25 -2
-103 -7 -175 -10 -71 -4 -151 -8 -176 -10 l-47 -4 17 49 c9 28 19 50 24 50 4
0 0 -16 -8 -37z m1455 30 c0 -5 -29 -8 -65 -8 -36 0 -65 3 -65 8 0 4 29 7 65
7 36 0 65 -3 65 -7z m-161 -7 c-9 -9 -149 -14 -144 -5 4 5 38 9 77 9 39 0 69
-2 67 -4z m1835 -19 c34 -23 33 -30 -1 -11 -23 12 -57 13 -188 8 -182 -7 -209
1 -35 11 63 4 116 8 117 9 10 9 86 -4 107 -17z m1176 -3 c0 -2 -9 0 -20 6 -11
6 -20 13 -20 16 0 2 9 0 20 -6 11 -6 20 -13 20 -16z m-3193 10 c-4 -4 -37 -8
-74 -10 -38 -1 -113 -5 -167 -8 -55 -3 -96 -3 -92 2 4 4 51 10 104 13 150 9
236 10 229 3z m-1293 -66 c-13 -34 -24 -68 -24 -75 0 -25 -28 -25 -112 1 -46
14 -96 28 -112 30 -16 3 -31 8 -35 12 -9 9 73 -5 154 -27 38 -10 75 -19 81
-19 6 0 21 32 33 70 12 39 26 70 31 70 5 0 -2 -28 -16 -62z m2956 51 c0 -5
-30 -9 -66 -9 -36 0 -63 3 -60 8 6 10 126 12 126 1z m1640 -50 c0 -5 -7 -6
-15 -3 -8 4 -15 9 -15 13 0 4 -16 13 -35 20 -19 7 -35 17 -35 22 0 6 23 -2 50
-17 28 -15 50 -31 50 -35z m-1920 41 c0 -5 -8 -10 -17 -10 -15 0 -16 2 -3 10
19 12 20 12 20 0z m110 -2 c0 -4 -24 -8 -52 -7 -30 0 -45 3 -36 7 25 10 88 10
88 0z m-187 -10 c-2 -5 -32 -7 -66 -7 -55 2 -57 3 -22 8 55 8 94 8 88 -1z
m-3435 -23 c-3 -3 -9 2 -12 12 -6 14 -5 15 5 6 7 -7 10 -15 7 -18z m3262 13
c0 -4 -30 -7 -67 -6 -67 1 -67 1 -18 7 69 8 85 8 85 -1z m858 -68 c-45 -30
-135 -94 -202 -142 -155 -112 -163 -118 -188 -140 -12 -10 -24 -18 -27 -18 -4
0 -26 -18 -49 -39 -23 -22 -42 -37 -42 -35 0 3 -6 -1 -13 -8 -8 -7 -35 -31
-61 -53 -27 -22 -58 -49 -70 -60 -13 -11 -60 -54 -106 -95 -45 -41 -94 -86
-109 -99 -69 -63 -431 -409 -598 -572 l-111 -109 -49 17 c-34 12 -80 17 -157
18 l-108 1 -40 74 c-248 468 -386 644 -693 883 -55 43 -107 84 -116 91 -9 8
-81 60 -160 116 -79 56 -146 106 -148 112 -4 12 -8 14 99 -56 41 -27 83 -57
93 -67 10 -10 42 -34 72 -54 30 -19 62 -42 72 -52 10 -10 30 -26 45 -36 100
-64 325 -271 400 -367 94 -121 107 -139 143 -204 15 -28 35 -58 44 -67 9 -10
36 -57 61 -106 24 -48 49 -93 55 -99 5 -6 25 -43 44 -82 l35 -72 101 0 c60 0
122 -6 150 -15 l49 -14 45 41 c25 23 66 63 91 88 71 70 284 273 415 395 65 61
144 135 175 165 32 30 84 78 116 107 33 28 88 78 124 110 36 32 90 76 120 98
30 22 60 44 65 51 18 19 93 74 101 74 5 0 31 20 59 45 27 25 54 45 58 45 8 0
77 48 87 61 9 11 162 109 171 109 4 0 11 10 14 21 6 17 9 18 15 8 6 -10 -14
-29 -72 -69z m-1043 60 c-3 -5 -27 -9 -53 -8 l-47 1 50 7 c28 4 51 8 53 8 2 1
0 -2 -3 -8z m-182 -20 c-4 -4 -233 -19 -508 -34 -519 -27 -561 -29 -554 -21 5
5 76 10 269 20 63 3 142 8 175 10 33 2 110 6 170 9 61 3 139 8 175 11 36 2
108 7 160 11 52 3 97 8 99 10 2 2 8 1 13 -2 5 -4 6 -10 1 -14z m-2744 -4 c-12
-10 -60 -16 -54 -6 3 5 18 10 32 10 15 0 24 -2 22 -4z m38 -2 c-3 -3 -12 -4
-19 -1 -8 3 -5 6 6 6 11 1 17 -2 13 -5z m277 -2 c2 -4 -13 -6 -35 -4 -21 2
-39 6 -39 8 0 7 69 4 74 -4z m-385 -6 c-2 -2 -20 -6 -39 -10 -25 -4 -31 -3
-20 4 14 9 69 15 59 6z m461 -4 c0 -5 -13 -7 -30 -4 -16 2 -30 6 -30 8 0 2 14
4 30 4 17 0 30 -4 30 -8z m5213 -91 c23 -10 84 -38 135 -62 50 -23 92 -45 92
-49 0 -3 19 -17 43 -30 87 -48 265 -207 336 -300 14 -19 34 -44 44 -55 10 -11
30 -40 44 -65 14 -25 38 -63 52 -85 31 -46 71 -135 96 -215 10 -30 22 -60 26
-66 17 -22 49 -190 55 -294 8 -119 0 -134 -10 -20 -12 130 -19 169 -52 285
-14 50 -30 94 -35 100 -5 5 -9 14 -9 21 0 13 -50 122 -83 179 -50 88 -124 194
-168 240 -55 58 -159 158 -180 173 -13 9 -30 22 -36 28 -20 20 -143 99 -203
131 -80 43 -222 97 -322 123 -49 13 -88 26 -88 30 0 10 213 -46 263 -69z
m-1414 63 c17 -4 31 -10 31 -15 0 -5 -11 -4 -25 1 -28 11 -72 -10 -139 -67
-22 -18 -43 -33 -48 -33 -5 0 -58 -36 -118 -80 -60 -44 -113 -80 -118 -80 -5
0 -19 -11 -32 -25 -13 -14 -54 -46 -92 -71 -37 -26 -68 -52 -68 -60 0 -8 -6
-11 -17 -7 -11 4 -14 3 -9 -5 4 -7 3 -12 -3 -12 -13 0 -94 -67 -251 -210 -139
-125 -208 -190 -646 -610 -49 -47 -102 -100 -118 -118 -26 -30 -27 -34 -13
-50 8 -9 29 -46 46 -81 44 -92 43 -163 -3 -257 -18 -38 -44 -79 -57 -90 -36
-32 -143 -91 -186 -103 -77 -22 -303 -7 -303 19 0 5 -14 13 -31 19 -97 34
-190 156 -188 245 l1 41 8 -41 c35 -175 199 -289 403 -280 95 5 105 7 170 36
45 20 60 30 106 70 29 26 71 86 64 93 -3 4 -2 7 4 7 17 0 35 94 28 146 -7 58
-36 120 -75 163 l-30 33 102 99 c86 84 295 284 473 454 193 184 429 392 525
465 18 14 48 36 66 50 17 14 45 34 60 45 15 11 43 33 61 49 18 15 33 24 33 20
0 -5 4 -4 8 1 6 10 84 67 190 140 24 17 67 46 95 66 60 43 55 41 96 33z
m-2519 -15 c0 -5 -33 -8 -72 -8 -53 1 -63 3 -38 8 57 10 110 10 110 0z m-180
-11 c0 -5 -25 -8 -55 -8 -30 0 -55 3 -55 8 0 4 25 7 55 7 30 0 55 -3 55 -7z
m-176 -9 c-3 -5 -35 -8 -72 -7 -66 1 -67 1 -17 7 79 9 95 9 89 0z m53 5 c-3
-3 -12 -4 -19 -1 -8 3 -5 6 6 6 11 1 17 -2 13 -5z m-237 -20 c0 -2 -26 -3 -57
-3 -54 2 -55 2 -18 8 38 6 75 3 75 -5z m-1590 -17 c0 -8 -21 -25 -47 -38 -56
-27 -206 -118 -213 -128 -3 -4 -21 -18 -40 -31 -35 -24 -134 -114 -176 -160
-62 -68 -120 -142 -116 -148 2 -3 0 -8 -5 -11 -38 -25 -148 -241 -192 -376
-54 -164 -70 -281 -66 -475 5 -185 22 -286 77 -445 41 -119 159 -342 198 -375
3 -3 17 -21 30 -40 25 -36 171 -185 226 -231 59 -50 180 -126 272 -172 91 -46
275 -110 342 -120 19 -3 46 -8 60 -11 14 -3 49 -7 79 -10 58 -5 82 -16 35 -16
-40 0 -207 28 -279 46 -33 9 -85 27 -115 41 -30 14 -71 31 -91 38 -114 41
-376 225 -438 308 -7 10 -29 33 -48 50 -19 18 -41 43 -48 57 -8 14 -29 42 -47
62 -18 20 -51 72 -73 115 -22 43 -45 83 -51 90 -16 17 -71 170 -90 251 -9 37
-20 76 -25 87 -39 88 -39 533 1 620 5 11 17 49 25 84 24 95 68 211 106 278 19
32 43 76 53 96 11 21 29 48 40 60 12 13 30 36 40 52 17 26 68 84 132 149 56
57 132 121 182 154 32 19 64 42 72 50 8 8 52 33 97 55 46 22 83 43 83 48 0 5
2 9 5 9 3 0 5 -6 5 -13z m617 2 c114 -1 306 -28 335 -45 5 -3 20 -8 35 -10 15
-3 32 -9 39 -15 6 -5 13 -7 16 -4 3 3 11 -1 17 -9 9 -11 9 -16 0 -22 -7 -4 -9
-3 -6 3 8 13 -109 48 -233 69 -100 17 -309 22 -397 10 l-51 -8 15 -44 c8 -25
13 -48 10 -51 -5 -4 -37 89 -37 107 0 3 15 7 33 8 42 3 90 12 96 17 2 3 7 3
11 0 3 -2 56 -5 117 -6z m4258 -29 c7 0 17 -6 23 -13 9 -10 -1 -19 -46 -41
-97 -48 -242 -155 -338 -250 -91 -91 -190 -214 -219 -271 -11 -22 -15 -25 -15
-11 0 21 46 106 58 106 4 0 19 19 34 43 15 24 43 57 62 74 18 18 40 40 47 50
25 33 163 149 224 188 33 21 62 41 65 45 3 3 27 17 53 30 27 14 50 27 53 31 2
3 -21 14 -51 24 -30 9 -55 21 -55 26 0 4 21 -1 46 -11 25 -11 51 -20 59 -20z
m-3630 -10 c3 -5 1 -10 -4 -10 -6 0 -11 5 -11 10 0 6 2 10 4 10 3 0 8 -4 11
-10z m49 -29 c-2 -3 -12 3 -22 13 -16 17 -16 18 5 5 12 -7 20 -15 17 -18z
m4736 -46 c156 -48 416 -238 545 -400 22 -27 43 -51 48 -53 4 -2 7 -10 7 -17
0 -7 4 -15 8 -17 13 -5 96 -148 129 -224 29 -65 79 -231 89 -293 10 -64 11
-80 3 -75 -5 3 -9 14 -9 25 0 29 -31 172 -39 184 -4 6 -20 46 -36 90 -44 126
-126 270 -212 373 -57 69 -172 180 -218 210 -22 14 -58 40 -80 57 -65 50 -239
134 -252 121 -2 -2 5 -22 17 -45 11 -23 17 -41 12 -41 -5 0 -18 23 -30 50 -12
28 -29 53 -38 57 -12 4 -13 7 -3 14 7 4 18 4 24 0 5 -5 21 -12 35 -16z m-975
-4 c-6 -5 -43 -23 -83 -40 -116 -51 -266 -150 -342 -226 -25 -25 -48 -45 -52
-45 -4 0 -20 -19 -37 -42 -16 -24 -43 -57 -59 -74 -31 -34 -100 -141 -119
-186 -10 -23 -9 -35 9 -75 11 -26 31 -63 45 -80 15 -21 18 -31 9 -27 -8 3 -29
33 -47 67 -18 34 -36 69 -42 77 -6 11 0 30 22 68 17 29 31 57 31 62 0 6 5 10
10 10 6 0 10 6 10 14 0 8 4 16 8 18 4 2 21 21 37 43 58 78 138 162 211 220 27
22 55 46 62 52 7 7 43 31 80 53 37 23 74 45 82 50 58 37 191 86 165 61z m183
-48 c12 -3 22 -9 22 -13 0 -4 -40 6 -90 24 -49 17 -90 34 -90 38 0 4 30 -4 68
-18 37 -15 77 -29 90 -31z m-5191 35 c15 -24 60 -158 53 -158 -4 0 -18 32 -30
70 -12 39 -27 73 -32 77 -11 6 -198 -87 -198 -99 0 -4 -19 -20 -42 -35 -58
-37 -174 -146 -222 -207 -21 -28 -45 -56 -52 -62 -8 -6 -45 -65 -84 -130 -53
-89 -79 -148 -106 -234 -47 -153 -45 -148 -51 -132 -12 32 101 324 146 376 9
10 15 20 13 23 -8 10 124 178 192 245 89 89 113 108 190 161 34 22 64 45 68
51 4 6 8 7 8 2 0 -5 6 -4 13 2 15 12 109 61 119 62 4 0 10 -6 15 -12z m974
-74 c-12 -32 -25 -62 -30 -67 -5 -5 3 25 17 67 15 42 28 72 30 67 2 -5 -6 -35
-17 -67z m-607 50 c3 -8 2 -12 -4 -9 -6 3 -10 10 -10 16 0 14 7 11 14 -7z
m876 -36 c118 -72 258 -193 349 -302 131 -159 249 -414 276 -601 4 -22 9 -51
11 -65 9 -40 11 -294 4 -315 -4 -11 -10 63 -13 165 -5 172 -24 316 -47 345 -4
6 -15 35 -25 65 -20 64 -85 213 -95 220 -4 3 -25 33 -46 66 -73 115 -211 264
-304 326 -25 17 -49 36 -55 43 -5 6 -41 29 -79 50 -55 30 -70 35 -77 24 -5 -8
-9 -17 -9 -21 0 -5 -4 -8 -9 -8 -5 0 -4 13 2 30 14 36 24 34 117 -22z m4007
-4 c-3 -3 -12 -4 -19 -1 -8 3 -5 6 6 6 11 1 17 -2 13 -5z m191 -123 c37 -40
25 -36 -23 8 -25 23 -56 46 -70 51 -14 5 -25 14 -25 20 0 13 86 -44 118 -79z
m570 64 c-3 -3 -9 2 -12 12 -6 14 -5 15 5 6 7 -7 10 -15 7 -18z m-4430 -45 c9
-8 44 -35 77 -59 33 -25 64 -51 68 -58 4 -7 12 -13 18 -13 28 0 274 -249 341
-345 68 -98 151 -235 204 -335 21 -41 41 -77 44 -80 3 -3 18 -32 34 -65 27
-56 28 -60 11 -70 -66 -37 -138 -132 -151 -198 -5 -30 -14 -33 -14 -5 0 48 56
141 110 182 27 21 50 40 50 42 0 16 -180 338 -226 405 -17 24 -43 65 -58 92
-15 26 -30 47 -34 47 -4 0 -16 14 -27 32 -19 34 -151 166 -250 253 -103 91
-118 87 -44 -11 29 -38 58 -83 65 -101 8 -17 19 -35 25 -38 14 -9 65 -122 91
-205 11 -36 25 -70 30 -76 17 -22 48 -190 54 -294 7 -116 0 -135 -10 -25 -3
39 -7 79 -10 90 -2 11 -7 42 -11 70 -22 153 -108 362 -215 523 -67 100 -89
128 -184 224 -49 51 -59 65 -36 52 17 -11 39 -26 48 -34z m-1130 -71 c17 -49
27 -89 24 -89 -4 0 -15 27 -26 61 -10 33 -26 75 -36 94 -11 22 -13 32 -4 28 6
-2 26 -45 42 -94z m635 76 c-3 -9 -8 -14 -10 -11 -3 3 -2 9 2 15 9 16 15 13 8
-4z m-153 -15 c-6 -11 -13 -20 -16 -20 -2 0 0 9 6 20 6 11 13 20 16 20 2 0 0
-9 -6 -20z m5094 4 c3 -8 2 -12 -4 -9 -6 3 -10 10 -10 16 0 14 7 11 14 -7z
m-4972 -66 c-7 -7 -12 -8 -12 -2 0 14 12 26 19 19 2 -3 -1 -11 -7 -17z m4472
-41 c55 -93 67 -117 58 -117 -5 0 -15 15 -22 33 -7 17 -28 53 -46 79 -18 26
-28 45 -21 42 7 -2 21 -19 31 -37z m-4498 -37 c-12 -33 -24 -60 -28 -60 -4 0
3 27 15 60 12 33 25 60 28 60 3 0 -3 -27 -15 -60z m-918 19 c-3 -8 -7 -3 -11
10 -4 17 -3 21 5 13 5 -5 8 -16 6 -23z m743 -79 c-14 -38 -29 -70 -33 -70 -4
0 1 19 11 43 10 23 21 54 25 70 3 15 10 27 15 27 5 0 -3 -31 -18 -70z m-699
-32 c14 -43 23 -78 19 -78 -3 0 -12 19 -20 43 -34 105 -41 131 -33 122 5 -6
21 -45 34 -87z m4067 -58 c0 -25 -38 73 -38 100 0 16 7 5 19 -30 11 -30 19
-62 19 -70z m-3408 -13 c-10 -9 -11 -8 -5 6 3 10 9 15 12 12 3 -3 0 -11 -7
-18z m-236 -106 c8 -24 10 -40 6 -35 -12 14 -51 124 -50 142 0 18 21 -31 44
-107z m355 32 c-42 -115 -49 -130 -49 -112 -1 9 13 49 29 89 17 40 30 79 30
86 0 8 4 14 9 14 5 0 -3 -35 -19 -77z m4694 51 c3 -8 2 -12 -4 -9 -6 3 -10 10
-10 16 0 14 7 11 14 -7z m-4895 -179 c-17 -42 -33 -74 -36 -72 -2 3 3 20 11
38 8 19 23 56 32 83 10 27 20 44 22 38 2 -6 -11 -45 -29 -87z m-499 70 c0 -8
-2 -15 -4 -15 -2 0 -6 7 -10 15 -3 8 -1 15 4 15 6 0 10 -7 10 -15z m35 -100
c16 -42 25 -78 22 -81 -3 -3 -15 25 -27 63 -13 37 -25 74 -28 81 -2 6 -2 12 1
12 3 0 17 -34 32 -75z m338 55 c3 -11 3 -20 1 -20 -2 0 -8 9 -14 20 -6 11 -7
20 -2 20 6 0 12 -9 15 -20z m3384 -12 c-3 -7 -5 -2 -5 12 0 14 2 19 5 13 2 -7
2 -19 0 -25z m0 -50 c-3 -8 -6 -5 -6 6 -1 11 2 17 5 13 3 -3 4 -12 1 -19z
m2033 18 c0 -3 -4 -8 -10 -11 -5 -3 -10 -1 -10 4 0 6 5 11 10 11 6 0 10 -2 10
-4z m-27 -73 c-18 -52 -53 -116 -53 -96 0 7 11 32 23 56 13 24 26 54 30 66 3
11 8 21 10 21 3 0 -1 -21 -10 -47z m-5330 -33 c3 -11 3 -20 1 -20 -2 0 -8 9
-14 20 -6 11 -7 20 -2 20 6 0 12 -9 15 -20z m27 16 c0 -3 -4 -8 -10 -11 -5 -3
-10 -1 -10 4 0 6 5 11 10 11 6 0 10 -2 10 -4z m122 -68 c-10 -24 -24 -62 -32
-85 -7 -24 -17 -43 -21 -43 -5 0 1 24 12 53 12 28 26 67 31 85 5 17 13 32 18
32 5 0 1 -19 -8 -42z m3697 -72 c2 -6 -16 10 -41 35 -25 26 -48 54 -52 64 -3
10 15 -6 41 -35 27 -29 50 -58 52 -64z m-522 52 c-3 -8 -6 -5 -6 6 -1 11 2 17
5 13 3 -3 4 -12 1 -19z m1592 -20 c-27 -52 -66 -106 -89 -124 -17 -12 -12 -2
16 31 22 28 47 65 54 83 7 17 17 32 22 32 5 0 3 -10 -3 -22z m-5231 -33 c-3
-3 -9 2 -12 12 -6 14 -5 15 5 6 7 -7 10 -15 7 -18z m5562 5 c0 -5 -5 -10 -11
-10 -5 0 -7 5 -4 10 3 6 8 10 11 10 2 0 4 -4 4 -10z m-6686 -59 c-4 -28 -10
-51 -14 -51 -3 0 -2 25 3 55 13 68 20 66 11 -4z m1159 -43 c14 -38 22 -68 18
-68 -4 0 -19 34 -34 76 -31 92 -20 86 16 -8z m4237 9 c25 -17 25 -17 -7 -2
-31 14 -83 60 -83 71 0 4 15 -7 33 -22 18 -16 44 -37 57 -47z m1280 70 c0 -2
-18 -21 -40 -42 -22 -21 -40 -36 -40 -32 0 4 16 23 36 42 33 32 44 40 44 32z
m-1902 -88 c-3 -20 -5 -19 -9 9 -3 20 -2 29 4 23 5 -5 7 -19 5 -32z m1441 -25
c-15 -18 -69 -48 -75 -41 -3 2 9 10 25 17 17 7 36 18 42 26 6 8 14 14 16 14 3
0 0 -7 -8 -16z m331 -19 c-18 -19 -36 -33 -38 -30 -6 6 49 62 62 64 6 0 -5
-15 -24 -34z m-6560 -117 c0 -79 -4 -138 -8 -131 -4 7 -7 67 -6 135 3 142 2
138 9 138 3 0 5 -64 5 -142z m7614 -30 c-1 -84 -5 -166 -8 -183 -3 -16 -8 -43
-11 -60 -3 -16 -8 -41 -11 -55 -3 -14 -7 -32 -9 -40 -1 -8 -5 -22 -8 -30 -3
-8 -18 -51 -33 -95 -15 -44 -31 -82 -35 -85 -3 -3 -10 -16 -14 -29 -4 -14 -21
-46 -36 -72 -16 -25 -29 -49 -29 -53 0 -16 -128 -174 -195 -241 -149 -148
-311 -251 -495 -315 -36 -12 -74 -26 -85 -30 -74 -29 -207 -45 -375 -45 -161
0 -230 7 -330 35 -41 11 -82 23 -90 25 -8 2 -16 4 -17 5 -2 2 -6 3 -10 5 -18
4 -50 17 -78 30 -116 53 -173 83 -185 95 -3 3 -25 18 -50 34 -233 151 -431
416 -519 695 -34 105 -62 241 -51 241 4 0 11 -25 15 -57 4 -31 11 -63 15 -72
5 -9 25 -68 44 -131 27 -85 54 -146 106 -234 39 -65 76 -124 84 -130 7 -6 31
-34 52 -62 48 -61 166 -172 214 -201 19 -12 45 -31 57 -42 26 -24 236 -133
303 -156 243 -86 602 -89 855 -9 61 20 288 128 306 147 8 7 41 32 74 54 108
74 244 218 318 336 22 34 42 64 46 67 11 8 78 162 96 220 10 30 21 60 25 65
23 29 42 172 47 343 3 100 8 182 12 182 4 0 7 -69 5 -152z m-6137 51 c-18 -50
-33 -84 -35 -76 -2 8 7 38 19 68 11 30 25 64 30 77 5 12 10 22 13 22 2 0 -10
-41 -27 -91z m3310 59 c-3 -7 -5 -2 -5 12 0 14 2 19 5 13 2 -7 2 -19 0 -25z
m783 13 c0 -5 -9 -7 -20 -4 -11 3 -20 7 -20 9 0 2 9 4 20 4 11 0 20 -4 20 -9z
m61 -17 c71 -25 307 -31 404 -9 44 9 86 20 94 23 8 3 12 1 8 -5 -3 -5 -45 -18
-92 -28 -135 -28 -422 -11 -461 28 -11 10 -1 9 47 -9z m-590 -27 l-24 -22 19
27 c10 14 21 24 23 22 3 -3 -6 -15 -18 -27z m218 -82 c6 -7 -72 23 -121 46
-16 7 -28 16 -28 20 0 8 135 -53 149 -66z m1172 46 c-13 -10 -47 -28 -75 -39
-54 -22 -52 -20 34 32 57 34 83 38 41 7z m-2930 8 c19 -7 38 -15 42 -19 5 -4
-26 -42 -69 -84 -43 -42 -82 -72 -86 -68 -18 18 -79 156 -74 168 7 18 138 19
187 3z m1286 -11 c-3 -8 -6 -5 -6 6 -1 11 2 17 5 13 3 -3 4 -12 1 -19z m-2000
-10 c-3 -8 -6 -5 -6 6 -1 11 2 17 5 13 3 -3 4 -12 1 -19z m2222 -15 c-42 -70
-54 -73 -17 -4 12 23 26 41 31 41 5 0 -1 -17 -14 -37z m-3771 2 c-3 -3 -9 2
-12 12 -6 14 -5 15 5 6 7 -7 10 -15 7 -18z m6489 -17 c-3 -7 -5 -2 -5 12 0 14
2 19 5 13 2 -7 2 -19 0 -25z m-4947 -193 c-12 -90 -39 -205 -50 -220 -4 -5
-18 -41 -30 -80 -33 -103 -131 -283 -195 -360 -126 -152 -279 -295 -356 -336
-21 -10 -43 -25 -51 -33 -16 -16 -140 -79 -178 -91 -14 -4 -49 -19 -79 -32
-62 -29 -261 -76 -300 -71 -18 2 -8 7 34 15 33 7 74 15 90 18 144 29 323 107
480 211 145 96 281 231 393 390 48 68 139 258 171 354 35 109 40 132 58 245 9
59 10 74 14 140 l3 60 4 -65 c2 -36 -2 -101 -8 -145z m490 73 l66 -133 37 0
c20 0 37 -3 37 -7 0 -5 9 -8 21 -8 15 0 19 5 15 18 -5 13 21 45 100 123 l106
104 34 -40 c62 -70 80 -198 39 -261 -8 -13 -12 -24 -9 -24 7 0 -80 -85 -107
-105 -36 -26 -111 -47 -189 -52 -125 -8 -227 30 -304 111 -101 109 -87 281 31
371 25 19 49 35 52 35 3 0 36 -60 71 -132z m-2004 72 l16 -39 71 -4 72 -3 -77
-2 -76 -2 -15 45 c-19 56 -13 59 9 5z m3521 8 c-3 -7 -5 -2 -5 12 0 14 2 19 5
13 2 -7 2 -19 0 -25z m517 23 c4 -5 -3 -7 -14 -4 -23 6 -26 13 -6 13 8 0 17
-4 20 -9z m2423 -113 c-7 -110 -38 -279 -56 -302 -4 -6 -19 -42 -31 -81 -31
-95 -68 -176 -90 -200 -10 -11 -23 -32 -28 -46 -40 -103 -327 -401 -436 -450
-14 -7 -26 -16 -26 -20 0 -10 -197 -109 -216 -109 -8 0 -14 -4 -14 -9 0 -16
-219 -76 -310 -85 l-55 -6 60 15 c33 8 73 17 88 20 42 6 204 63 267 93 30 14
56 24 56 21 1 -2 10 3 20 12 11 9 42 28 69 44 99 56 249 183 349 296 61 68
160 220 205 314 35 74 86 209 96 255 2 8 8 35 14 60 17 76 28 168 30 243 1 26
4 47 8 47 3 0 3 -51 0 -112z m-2902 12 c9 -94 27 -200 42 -240 3 -8 7 -24 8
-36 6 -38 76 -209 120 -290 146 -268 384 -495 648 -618 21 -10 36 -20 33 -23
-7 -7 -166 69 -186 89 -8 8 -40 31 -72 50 -50 33 -126 97 -182 154 -65 66
-115 123 -132 149 -10 17 -24 35 -31 40 -6 6 -41 62 -76 125 -61 108 -123 260
-131 319 -2 14 -7 35 -11 46 -4 11 -11 31 -16 45 -13 39 -29 149 -29 209 0 71
7 62 15 -19z m115 23 c0 -25 -3 -44 -6 -40 -4 3 -6 21 -6 39 0 43 1 48 7 48 3
0 5 -21 5 -47z m695 -4 c35 -2 36 -3 10 -6 -32 -5 -255 37 -255 47 0 4 46 -3
103 -16 56 -13 120 -24 142 -25z m585 43 c0 -5 -46 -18 -102 -30 -132 -27
-188 -35 -168 -22 8 5 31 10 50 11 26 0 195 38 218 48 1 0 2 -3 2 -7z m-6189
-206 c5 -6 9 -18 9 -27 0 -32 77 -247 104 -290 15 -24 45 -74 67 -111 21 -36
53 -81 70 -100 17 -18 42 -49 55 -68 13 -19 48 -55 79 -79 30 -24 55 -47 55
-52 0 -15 225 -156 300 -189 41 -18 94 -41 117 -51 23 -11 47 -19 52 -19 6 0
11 -4 11 -9 0 -14 -174 54 -258 101 -42 24 -81 45 -86 47 -6 2 -15 8 -21 12
-191 149 -236 193 -337 327 -57 76 -152 242 -165 287 -1 6 -14 43 -28 83 -29
83 -65 248 -56 258 3 3 10 -21 14 -53 5 -32 13 -62 18 -67z m2635 102 c-2 -13
-7 -43 -12 -68 -4 -25 -8 -48 -8 -52 -1 -3 -5 -10 -10 -15 -5 -5 -6 7 -2 27 4
19 10 56 13 83 3 26 10 47 15 47 4 0 7 -10 4 -22z m-46 -206 c-10 -32 -30 -87
-44 -122 -30 -73 -124 -243 -137 -248 -5 -2 -9 -8 -9 -14 0 -5 -6 -15 -12 -22
-7 -7 -26 -31 -43 -52 -40 -51 -129 -140 -190 -189 -28 -22 -52 -42 -55 -45
-12 -14 -142 -91 -205 -122 -74 -37 -230 -94 -280 -102 -16 -2 -30 -5 -30 -6
0 -2 -33 -8 -95 -17 -68 -10 -308 -10 -375 -1 -74 11 -158 29 -175 39 -22 12
-4 11 80 -7 227 -48 566 -27 722 45 25 11 69 30 99 41 55 22 150 70 159 81 3
3 35 27 72 52 213 145 389 372 473 612 16 44 32 84 37 90 4 5 8 17 8 27 0 10
4 18 9 18 5 0 1 -26 -9 -58z m3180 -999 c41 -14 83 -27 92 -29 10 -2 28 -6 41
-9 12 -3 33 -7 47 -10 48 -9 86 -23 65 -24 -62 -2 -318 71 -345 98 -13 13 -13
14 5 7 11 -4 54 -19 95 -33z m-4290 -55 c0 -5 -21 -8 -47 -8 -27 0 -43 4 -36
8 15 9 83 9 83 0z m-243 -4 c-3 -3 -12 -4 -19 -1 -8 3 -5 6 6 6 11 1 17 -2 13
-5z m4893 -16 c0 -10 -61 -10 -77 0 -7 4 8 7 33 7 24 0 44 -3 44 -7z m294 0
c-3 -4 -22 -8 -42 -7 -31 1 -33 2 -12 8 33 9 60 9 54 -1z"/>
<path d="M3568 2923 c-16 -2 -28 -6 -28 -7 0 -2 15 -36 33 -76 l33 -73 67 69
c62 64 66 69 45 75 -37 10 -121 16 -150 12z"/>
<path d="M3356 2835 c-25 -26 -46 -50 -46 -55 0 -5 -8 -16 -17 -26 -14 -14
-18 -35 -18 -101 0 -46 5 -87 10 -91 6 -4 24 -26 41 -49 41 -56 67 -76 138
-102 123 -46 286 -23 378 52 75 61 100 114 96 202 -3 57 -9 79 -33 118 -17 26
-33 47 -36 47 -3 0 -49 -41 -102 -91 -82 -78 -96 -95 -91 -115 6 -21 3 -24
-25 -24 -17 0 -31 -4 -31 -10 0 -5 -8 -10 -18 -10 -10 0 -24 -6 -31 -12 -11
-11 -13 -10 -8 4 4 11 -4 27 -22 45 -15 15 -51 80 -80 143 -29 63 -54 116 -56
118 -1 2 -23 -18 -49 -43z"/>
</g>
</svg>
